HIERARCHY
ROOT Hips
{
	OFFSET 0.000000 0.000000 0.000000 
	CHANNELS 6 Xposition Yposition Zposition Zrotation Yrotation Xrotation
	JOINT LeftUpLeg
	{
		OFFSET 1.363060 -1.794630 0.839290 
		CHANNELS 3 Zrotation Yrotation Xrotation
		JOINT LeftLeg
		{
			OFFSET 2.448110 -6.726130 0.000000 
			CHANNELS 3 Zrotation Yrotation Xrotation
			JOINT LeftFoot
			{
				OFFSET 2.562200 -7.039590 0.000000 
				CHANNELS 3 Zrotation Yrotation Xrotation
				JOINT LeftToeBase
				{
					OFFSET 0.157640 -0.433110 2.322550 
					CHANNELS 3 Zrotation Yrotation Xrotation
					End Site
					{
						OFFSET 0.000000 0.000000 0.000000 
					}
				}
			}
		}
	}
	JOINT RightUpLeg
	{
		OFFSET -1.305520 -1.794630 0.839290 
		CHANNELS 3 Zrotation Yrotation Xrotation
		JOINT RightLeg
		{
			OFFSET -2.542530 -6.985550 0.000000 
			CHANNELS 3 Zrotation Yrotation Xrotation
			JOINT RightFoot
			{
				OFFSET -2.568260 -7.056230 0.000000 
				CHANNELS 3 Zrotation Yrotation Xrotation
				JOINT RightToeBase
				{
					OFFSET -0.164730 -0.452590 2.363150 
					CHANNELS 3 Zrotation Yrotation Xrotation
					End Site
					{
						OFFSET 0.000000 0.000000 0.000000 
					}
				}
			}
		}
	}
	JOINT Spine
	{
		OFFSET 0.028270 2.035590 -0.193380 
		CHANNELS 3 Zrotation Yrotation Xrotation
		JOINT Spine1
		{
			OFFSET 0.056720 2.048850 -0.042750 
			CHANNELS 3 Zrotation Yrotation Xrotation
			JOINT Neck1
			{
				OFFSET -0.054170 1.746240 0.172020 
				CHANNELS 3 Zrotation Yrotation Xrotation
				JOINT Head
				{
					OFFSET 0.104070 1.761360 -0.123970 
					CHANNELS 3 Zrotation Yrotation Xrotation
					End Site
					{
						OFFSET 0.000000 0.000000 0.000000 
					}
				}
			}
			JOINT LeftArm
			{
				OFFSET 3.362410 1.200890 -0.311210 
				CHANNELS 3 Zrotation Yrotation Xrotation
				JOINT LeftForeArm
				{
					OFFSET 4.983000 -0.000000 -0.000000 
					CHANNELS 3 Zrotation Yrotation Xrotation
					JOINT LeftHand
					{
						OFFSET 3.483560 -0.000000 -0.000000 
						CHANNELS 3 Zrotation Yrotation Xrotation
						JOINT LeftHandIndex1
						{
							OFFSET 0.715260 -0.000000 -0.000000 
							CHANNELS 3 Zrotation Yrotation Xrotation
							End Site
							{
								OFFSET 0.000000 0.000000 0.000000 
							}
						}
					}
				}
			}
			JOINT RightArm
			{
				OFFSET -3.136600 1.374050 -0.404650 
				CHANNELS 3 Zrotation Yrotation Xrotation
				JOINT RightForeArm
				{
					OFFSET -5.241900 -0.000000 -0.000000 
					CHANNELS 3 Zrotation Yrotation Xrotation
					JOINT RightHand
					{
						OFFSET -3.444170 -0.000000 -0.000000 
						CHANNELS 3 Zrotation Yrotation Xrotation
						JOINT RightHandIndex1
						{
							OFFSET -0.622530 -0.000000 -0.000000 
							CHANNELS 3 Zrotation Yrotation Xrotation
							End Site
							{
								OFFSET 0.000000 0.000000 0.000000 
							}
						}
					}
				}
			}
		}
	}
}
MOTION
Frames: 10
Frame Time: 0.041667
0.206258 19.360753 6.450766 -7.855967 -6.744722 10.188459 -0.712596 -7.428566 -38.118122 3.063974 14.603988 38.660730 2.164803 0.318737 28.376515 0.727900 -5.451400 -15.200700 19.555018 8.938288 17.844750 2.033531 -2.395197 6.296450 -1.746950 -22.668985 45.232475 -0.343700 -3.767300 10.423000 1.036250 5.099871 1.810914 -6.500576 3.292765 -8.523980 4.514442 -0.855438 -1.043028 0.818600 -0.375700 -1.902400 -76.686488 34.754445 40.156297 119.218503 -64.534957 -87.894882 0.050982 -1.701254 -24.413634 -7.125000 0.000000 0.000000 62.322442 -1.652056 43.033939 -132.819539 54.930282 -99.345553 -0.148170 0.834915 -8.078572 7.125000 0.000000 0.000000 
0.201560 19.396034 7.012338 -8.094872 -6.447937 10.173265 0.216475 -7.885563 -36.772055 1.622028 13.000535 33.273485 2.332948 1.769615 30.399518 0.741500 -5.500900 -15.343000 20.351191 9.248350 18.139177 1.657603 -3.201257 8.871841 -1.662334 -20.785808 44.429996 -0.495400 -4.512400 12.522900 1.115179 5.010585 1.886189 -6.318884 3.266925 -8.412315 4.357964 -0.923404 -1.070553 0.758200 -0.405900 -1.849200 -77.051216 34.780234 39.423668 120.300958 -64.189036 -88.599911 0.072059 -1.705909 -25.647162 -7.125000 0.000000 0.000000 62.356292 -1.736324 43.342067 -132.057036 55.339865 -98.835447 -0.121619 0.833848 -7.876345 7.125000 0.000000 0.000000 
0.201978 19.418163 7.569525 -8.354900 -6.291745 10.115393 1.186390 -8.305716 -35.379278 0.478493 11.398885 28.262805 2.382399 3.654488 32.290749 0.689200 -5.307200 -14.786900 21.201033 9.732999 18.405984 1.226992 -4.070967 11.696168 -1.603739 -18.930341 43.611304 -0.760200 -5.568200 15.536500 1.185775 5.049587 1.754558 -6.218704 3.262612 -8.745837 4.188085 -0.977109 -0.871088 0.690400 -0.425500 -1.726900 -77.169334 35.066051 39.108755 121.408035 -63.850336 -89.295052 0.062327 -1.697435 -26.776940 -7.125000 0.000000 0.000000 62.343972 -2.351272 43.618276 -131.141730 55.844924 -98.214708 -0.091374 0.843567 -7.530003 7.125000 0.000000 0.000000 
0.202395 19.430897 8.130470 -8.859720 -6.157631 9.934872 2.314006 -8.729305 -33.946746 -0.337554 9.897320 23.726237 2.230730 6.019975 33.782831 0.501100 -4.537900 -12.595100 22.377081 10.221474 18.801978 0.702673 -5.020639 14.752737 -1.490442 -17.582097 42.724092 -1.092400 -6.642000 18.659100 1.304823 5.147659 1.772224 -6.243475 3.280683 -8.913094 4.047793 -0.989528 -0.815405 0.631700 -0.428300 -1.644400 -77.421172 34.788355 38.857533 121.770761 -63.702368 -89.537737 0.048179 -1.700914 -27.443086 -7.125000 0.000000 0.000000 62.472210 -3.006747 43.531502 -129.775793 56.558452 -97.301195 -0.044254 0.867189 -7.189720 7.125000 0.000000 0.000000 
0.203126 19.434029 8.693712 -9.466415 -5.689216 9.776599 3.492747 -9.527635 -32.589693 -0.879054 8.568455 19.843059 1.903904 8.318873 34.511306 0.325700 -3.667900 -10.144300 23.807007 10.421017 19.001032 0.078697 -6.001091 18.039187 -1.116879 -16.609560 41.032606 -0.800500 -5.710300 15.946200 1.435975 5.034892 1.893043 -6.318203 3.199020 -8.820459 3.885994 -0.994167 -0.976872 0.553200 -0.434700 -1.656100 -77.823283 34.148094 38.469842 121.946576 -63.582074 -89.687148 0.058692 -1.715183 -28.160997 -7.125000 0.000000 0.000000 62.781939 -3.481844 43.456010 -127.956620 57.438749 -96.081404 0.026712 0.888982 -7.016212 7.125000 0.000000 0.000000 
0.199786 19.421816 9.244845 -9.854423 -5.130180 9.594592 4.332805 -10.345006 -31.433654 -1.195429 7.491780 16.780767 1.347887 10.545565 34.465126 0.263300 -3.300900 -9.117500 24.845146 9.659049 18.531415 -0.622375 -6.957265 21.570469 -0.656421 -15.327047 38.689482 -0.075200 -1.769100 4.868100 1.460609 4.852850 1.914991 -6.363808 3.068876 -8.898457 3.713835 -1.008763 -1.139832 0.444700 -0.452500 -1.726000 -77.855662 33.629977 38.294286 122.418567 -63.376312 -90.022353 0.083186 -1.719032 -29.170391 -7.125000 0.000000 0.000000 63.246895 -4.264751 43.449285 -125.963178 58.353392 -94.736977 0.110242 0.935701 -7.206630 7.125000 0.000000 0.000000 
0.195193 19.383404 9.785541 -10.200236 -4.910571 9.467603 4.803402 -10.539069 -30.624654 -1.355064 6.730509 14.570281 0.695416 12.609779 34.108020 0.429800 -4.207400 -11.660800 25.597775 9.139937 17.872116 -1.536982 -8.105508 25.186156 -0.995155 -15.382263 39.967682 -0.416300 -4.141400 11.475000 1.505603 4.829474 2.035351 -6.331873 3.040451 -8.738290 3.629712 -1.042271 -1.739093 0.396100 -0.486500 -2.036600 -77.781476 32.746775 38.343540 122.736128 -63.198211 -90.265072 0.102439 -1.733140 -30.164321 -7.125000 0.000000 0.000000 63.707185 -4.973569 43.239254 -123.242577 59.473500 -92.923884 0.222637 1.007896 -7.596117 7.125000 0.000000 0.000000 
0.193001 19.328186 10.338553 -10.482532 -4.736696 9.376549 4.821298 -10.202721 -30.133342 -1.403950 6.277087 13.230464 -0.049437 14.488396 33.422097 0.546900 -4.737900 -13.162600 26.289662 8.681065 17.086412 -2.548906 -9.239811 29.082935 -1.102164 -15.341908 40.251098 -0.406600 -4.093700 11.340500 1.573676 4.741826 2.304477 -6.213953 3.008408 -8.186951 3.798112 -0.929156 -2.563608 0.499100 -0.445200 -2.453300 -77.858687 31.451527 38.307828 122.681715 -63.121485 -90.274364 0.105483 -1.763622 -31.221555 -7.125000 0.000000 0.000000 64.125660 -5.479612 42.938771 -119.850335 60.684803 -90.685853 0.366273 1.099634 -8.015869 7.125000 0.000000 0.000000 
0.185799 19.282363 10.897515 -10.489399 -4.621056 9.244431 4.143877 -9.111093 -30.041598 -1.467524 6.034481 12.677673 -0.312147 15.193738 33.401097 0.930700 -6.145500 -17.207100 26.766524 8.322137 16.131648 -3.686599 -10.371514 33.186135 -1.054341 -15.716886 40.103708 -0.177000 -2.709600 7.471400 1.557381 4.635862 2.440908 -6.012697 2.959051 -7.917342 4.207058 -0.735868 -2.884452 0.701400 -0.353700 -2.623000 -77.838796 30.107223 38.300907 122.349581 -63.138446 -90.108034 0.119471 -1.788377 -32.530614 -7.125000 0.000000 0.000000 64.548063 -6.128617 42.535099 -115.902622 61.871907 -88.104584 0.539099 1.204985 -7.935047 7.125000 0.000000 0.000000 
0.177239 19.235704 11.444473 -10.269398 -4.168015 9.057300 2.933002 -7.783394 -30.272558 -1.595791 5.897351 12.792279 -0.215990 14.175345 32.591669 1.486300 -7.702200 -21.813000 27.139633 7.670106 14.841813 -5.002054 -11.493918 37.508006 -0.892302 -16.842647 39.810482 -0.113400 -2.171500 5.979900 1.414692 4.405866 2.380897 -5.908287 2.820593 -8.117428 4.532085 -0.627927 -2.942787 0.832000 -0.306100 -2.680100 -77.581109 28.800024 38.533734 121.927689 -63.188538 -89.879923 0.136141 -1.810508 -33.757947 -7.125000 0.000000 0.000000 65.053528 -6.924785 42.065267 -111.057789 63.000173 -84.967711 0.766507 1.314004 -7.442638 7.125000 0.000000 0.000000 
